<?xml version="1.0" encoding="utf-8"?>
<!-- Generator: Adobe Illustrator 27.3.1, SVG Export Plug-In . SVG Version: 6.00 Build 0)  -->
<svg version="1.1" id="Layer_1" xmlns="http://www.w3.org/2000/svg" xmlns:xlink="http://www.w3.org/1999/xlink" x="0px" y="0px"
	 viewBox="0 0 1200 1200" style="enable-background:new 0 0 1200 1200;" xml:space="preserve">
<style type="text/css">
	.st0{fill:#FFFFFF;}
</style>
<g id="Artwork">
	<path d="M309.8,0h580.4C1061.3,0,1200,138.7,1200,309.8v580.4c0,171.1-138.7,309.8-309.8,309.8H309.8C138.7,1200,0,1061.3,0,890.2
		V309.8C0,138.7,138.7,0,309.8,0z"/>
	<path class="st0" d="M553.4,571.3L553.4,571.3L553.4,571.3L553.4,571.3L553.4,571.3c0.2-0.3,0.4-0.4,0.7-0.4
		c0.1-0.3,0.4-0.4,0.7-0.4l0,0c0.1-0.2,0.3-0.3,0.5-0.3c0.1,0,0.2,0,0.3-0.1c0.1-0.1,0.3-0.2,0.4-0.3l0,0c0.1-0.3,0.4-0.5,0.7-0.4
		l0,0c0.3,0,0.5-0.1,0.7-0.3c0,0,0.1,0,0.1-0.1l0,0c0,0,0.1,0,0.1-0.1c0.1-0.1,0.2-0.2,0.3-0.2l0,0c0.1-0.3,0.4-0.4,0.8-0.4
		c0.1-0.3,0.4-0.4,0.7-0.4l0,0c0.1-0.1,0.2-0.3,0.4-0.3c0.1,0,0.1,0,0.2,0c0.1,0,0.2,0,0.2-0.1c0,0,0,0,0,0c0.1-0.1,0.3-0.2,0.4-0.3
		l0,0c0.1-0.4,0.4-0.4,0.8-0.4c0.1-0.3,0.4-0.4,0.7-0.4l0,0c0,0,0-0.1,0.1-0.1c0.1-0.1,0.2-0.2,0.4-0.2h0.1c0.6-0.2,1.1-0.4,1.5-0.8
		c9.4-5.4,18.8-10.8,28.2-16.3c3-1.7,6-3.3,8.9-5.2l0,0l0,0c0.2-0.2,0.4-0.4,0.7-0.4l0,0c0.1-0.2,0.3-0.3,0.5-0.3
		c0.1,0,0.2,0,0.2-0.1l0.4-0.3c0.1-0.3,0.4-0.5,0.8-0.4c0.1-0.3,0.4-0.4,0.7-0.4l0,0c0.1-0.2,0.3-0.3,0.5-0.3c0.1,0,0.2,0,0.3-0.1
		l0.4-0.3c0.1-0.3,0.4-0.5,0.8-0.4c0.1-0.2,0.2-0.3,0.4-0.3l0,0c0,0,0.1,0,0.2,0h0.1l0.1-0.1c0.1-0.1,0.3-0.2,0.5-0.3
		c0.1,0,0.2,0,0.3-0.1l0.4-0.3c0.1-0.3,0.4-0.5,0.8-0.4l0,0c0.1-0.2,0.3-0.3,0.5-0.3c0.1,0,0.2,0,0.2-0.1c0,0,0,0,0,0
		c0.1-0.1,0.3-0.2,0.5-0.3c2.8-1.4,5.4-2.9,8-4.6l0,0c0.1-0.3,0.4-0.4,0.7-0.4l0,0l0.1-0.1l0.1-0.1c0.1-0.1,0.2-0.1,0.4-0.2
		c0.1,0,0.2,0,0.2-0.1c0.1-0.1,0.3-0.2,0.4-0.3l0,0c0.1-0.3,0.4-0.4,0.8-0.4c0.1-0.3,0.4-0.4,0.7-0.4l0,0c0.1-0.1,0.2-0.2,0.4-0.3
		l0,0c0.1-0.3,0.4-0.4,0.7-0.4c0.1-0.3,0.4-0.4,0.8-0.4c0.1-0.3,0.4-0.4,0.7-0.4l0,0c0.2-0.1,0.2-0.3,0.4-0.3l0,0
		c0.1-0.4,0.4-0.4,0.7-0.4c0.1-0.3,0.4-0.4,0.8-0.4c0.1-0.2,0.2-0.3,0.4-0.3c0.1,0,0.1,0,0.2,0h0.1l0.1-0.1c0.1-0.1,0.2-0.2,0.4-0.3
		l0,0c0.1-0.3,0.4-0.4,0.8-0.4c0.1-0.3,0.4-0.4,0.8-0.4l0,0c0,0,0-0.1,0.1-0.1l0.1-0.1c0.1-0.1,0.2-0.1,0.4-0.2c0.1,0,0.2,0,0.2-0.1
		c0.1-0.1,0.2-0.2,0.4-0.3c0.1-0.3,0.4-0.5,0.8-0.4c0.1-0.3,0.4-0.4,0.7-0.4l0,0c0.1-0.2,0.3-0.3,0.5-0.3l0,0c0.1,0,0.2,0,0.3-0.1
		l0.4-0.3c0.1-0.3,0.4-0.5,0.8-0.4c0.1-0.3,0.4-0.4,0.7-0.4l0,0c0.2-0.1,0.3-0.2,0.4-0.3l0,0c0.1-0.4,0.4-0.4,0.7-0.4
		c0.1-0.3,0.4-0.4,0.8-0.4c0,0,0-0.1,0.1-0.1l0,0l0,0l0.1-0.1c0.1,0,0.1-0.1,0.2-0.1l0,0c0,0,0.1,0,0.1,0h0.1l0.1-0.1
		c0.1-0.1,0.3-0.2,0.4-0.3l0,0c0.1-0.3,0.4-0.4,0.7-0.4c0.1-0.3,0.4-0.4,0.7-0.4l0,0c0.1-0.2,0.3-0.3,0.5-0.3c0.1,0,0.2,0,0.2-0.1
		c0.1-0.1,0.3-0.2,0.4-0.3l0,0c0-0.1,0-0.2,0-0.3c0,0,0-0.1,0-0.1h0.8c0.1-0.3,0.4-0.4,0.7-0.4l0,0c0.1-0.1,0.2-0.3,0.4-0.3
		c0.1-0.4,0.4-0.4,0.7-0.4c0.1-0.3,0.4-0.4,0.8-0.4c0.1-0.2,0.2-0.3,0.4-0.3h0.2h0.1l0.1-0.1c0.1-0.1,0.3-0.2,0.5-0.3
		c0.4-0.2,0.8-0.3,1.2-0.5c11.6-6.7,23.1-13.3,34.6-20c3.1-1.8,6.4-3.5,9.4-5.5l0,0c0.1-0.3,0.4-0.4,0.7-0.4c0.2,0,0.5-0.1,0.6-0.3
		h0.1l0.1-0.1c0.1-0.1,0.2-0.2,0.4-0.3l0,0c0.1-0.4,0.4-0.4,0.7-0.4c0.1-0.3,0.4-0.4,0.8-0.4l0,0c0,0,0-0.1,0.1-0.1
		c-0.2-0.2-0.3-0.5-0.1-0.7c0.2-0.2,0.5-0.3,0.7-0.1c0.1-0.1,0.2-0.2,0.4-0.2c0.6-0.2,1.2-0.5,1.7-0.8c15.8-9.1,31.6-18.2,47.4-27.4
		c2.9-1.7,5.9-3.2,8.7-5.2l0,0l0,0c0.1-0.3,0.4-0.4,0.7-0.4c0.1-0.2,0.2-0.3,0.4-0.3h0.2h0.1l0.1-0.1c0.1-0.1,0.3-0.2,0.4-0.3l0,0
		c0.1-0.4,0.4-0.4,0.8-0.4c0.1-0.3,0.4-0.4,0.7-0.4l0,0c0,0,0-0.1,0.1-0.1l0,0l0,0c0.1-0.1,0.2-0.2,0.4-0.2c0.1,0,0.2,0,0.2-0.1
		c0.1-0.1,0.2-0.2,0.4-0.3l0,0c0.1-0.4,0.4-0.4,0.8-0.4c0.1-0.3,0.4-0.4,0.7-0.4l0,0c0.1-0.2,0.3-0.3,0.5-0.3c0.1,0,0.2,0,0.2-0.1
		c0.1-0.1,0.3-0.2,0.4-0.3l0,0c0.1-0.3,0.4-0.5,0.8-0.4c0.1-0.3,0.4-0.4,0.7-0.4l0,0c0.1-0.1,0.3-0.3,0.5-0.3
		c0.4-0.2,0.8-0.4,1.2-0.6c10.1-5.8,20.2-11.7,30.4-17.5c2.4-1.4,4.8-2.6,7.1-4.2l0.1-0.1c0.1-0.1,0.3-0.2,0.4-0.2
		c0.1,0,0.2,0,0.2-0.1c0,0,0,0,0,0c0.1-0.1,0.3-0.2,0.4-0.3l0,0c0.1-0.4,0.4-0.4,0.7-0.4c0.1-0.3,0.4-0.4,0.7-0.4l0,0
		c0.1-0.2,0.3-0.3,0.5-0.3c0.1,0,0.2,0,0.2-0.1c0.1-0.1,0.2-0.2,0.4-0.3c0.1-0.3,0.4-0.5,0.8-0.4c0.1-0.3,0.4-0.4,0.7-0.4l0,0
		c0.2-0.1,0.2-0.2,0.4-0.3l0,0c0.1-0.4,0.4-0.4,0.8-0.4c0.1-0.3,0.4-0.5,0.7-0.4c0.1-0.2,0.2-0.3,0.4-0.3c0.1,0,0.1,0,0.2,0h0.1
		l0.1-0.1c0.1-0.1,0.3-0.2,0.5-0.3c0.4-0.2,0.8-0.3,1.2-0.5c9.9-5.7,19.9-11.5,29.8-17.3c3.3-2,6.8-3.8,10-5.9l0,0
		c0-0.1,0.1-0.2,0.2-0.3c0.2-0.1,0.3-0.1,0.5-0.1c0.1-0.3,0.4-0.5,0.8-0.4c0.1-0.2,0.2-0.3,0.4-0.3c0.1,0,0.1,0,0.2,0h0.1l0.1-0.1
		c0.1-0.1,0.2-0.2,0.3-0.2l0,0l0,0l0,0c0.3,0,0.6-0.2,0.7-0.4l0,0c0.3,0,0.6-0.2,0.7-0.4l0,0c0.1-0.2,0.3-0.3,0.5-0.3
		c0.1,0,0.2,0,0.2-0.1l0.4-0.3l0,0c0.3,0,0.6-0.2,0.7-0.4c0.3,0,0.5-0.1,0.7-0.3c0,0,0.1,0,0.1-0.1l0,0l0.1-0.1
		c0.1-0.1,0.2-0.2,0.3-0.2l0,0c0.1-0.4,0.4-0.4,0.8-0.4l0,0c0.3,0,0.6-0.2,0.7-0.4l0,0c0,0,0.1-0.1,0.1-0.1l0,0l0,0
		c0.1-0.1,0.3-0.2,0.4-0.2c0.3-0.1,0.6-0.2,0.9-0.4c12.7-7.4,25.4-14.8,38.1-22.1c0.3-0.1,0.6-0.2,0.6-0.8c-1.4-1-2.9-2.2-4.4-3.2
		c-1.8-1.4-3.7-2.5-5.7-3.5c-0.3,0-0.7,0-0.8-0.4c-0.1,0-0.2-0.1-0.3-0.2l-0.1-0.1l0,0c-0.3,0-0.6-0.1-0.7-0.4
		c-0.3,0-0.6-0.1-0.8-0.4l0,0l0,0c-1.2-0.9-2.4-1.6-3.7-2.3c-3.2-1.8-6.3-3.8-9.6-5.4c-0.9-0.7-2-1.4-3.1-1.9
		c-3.4-1.9-6.6-4-10.1-5.7c-1.4-1-2.9-1.9-4.4-2.6c-3.6-2.1-7.2-4.3-10.9-6.2c-0.3,0-0.6,0-0.8-0.4l0,0c-0.2,0-0.3-0.2-0.4-0.3
		l-0.3-0.2c-4.3-2.6-8.6-5.2-13.1-7.5c-1.7-1.2-3.5-2.2-5.3-3.1c-1.4-1-3-1.9-4.6-2.7c-0.3,0-0.6-0.1-0.8-0.4l0,0l0,0l0,0
		c-2.2-1.6-4.6-2.8-7-4.2c-1.7-1.3-3.4-2.5-5.3-3.6c-0.6-0.5-1.3-1-2-1.3c-20.1-11.6-40.2-23.2-60.3-34.8
		c-44.8-25.9-89.6-51.9-134.3-77.8c-2.1-1.3-4.5-2.2-6.9-2.8c0-0.1,0-0.2,0-0.4h-3.8c0,0.1,0,0.2,0,0.4c-3.1,0.7-6,1.9-8.7,3.6
		c-11.7,6.8-23.3,13.5-35,20.3c-43.2,25-86.4,49.9-129.7,74.9c-47.6,27.4-95.1,54.9-142.7,82.2c-6.9,4-13.8,8-20.8,11.9
		c-5.4,3-9.3,7.2-10.3,13.5c-0.6,0.4-0.1,1.2-0.7,1.5v9.6c0.6,0.6,0.4,1.3,0.4,2c0,6,0,12,0,17.9c0,0.7-0.2,1.4,0.3,2
		c0,0.8,0.1,1.5,0.1,2.3c0,18.7,0,37.4-0.1,56c0.1,5.1,0.6,10.1,1.4,15.1c0.1,0.5,0,1,0.5,1.4c0.3-0.1,0.6-0.2,0.9-0.4
		c4.5-2.5,9-4.8,13.4-7.4c42.1-24.3,84.2-48.5,126.3-72.8c33-19.1,66-38.1,99-57.2c32.4-18.7,64.7-37.5,97.1-56.2
		c1.8-1.1,3.7-2,5.7-2.6c2.2-0.8,4.7-1,7-0.6c2.7,0.5,5.3,1.6,7.5,3.2c5,3.2,10,6.2,15.1,9.1c23.4,13.2,46.6,26.7,69.8,40.2
		c0.5,0.3,1.2,0.5,1.5,1.1c-0.2,0.4-0.5,0.6-0.9,0.8c-3.8,2.3-7.5,4.6-11.3,6.8c-24.3,14.1-48.6,28.1-72.9,42.1l-147.7,85.3
		c-30.3,17.5-60.7,35-91,52.5l-94.7,54.6c-5.5,3.2-11.1,6.3-16.6,9.6s-9.2,7.9-10.1,14.4c-0.6,0.4-0.1,1.2-0.7,1.5v20.3
		c0.1,0,0.2,0,0.4,0l0,0l0,0h-0.4v131.7c0.8,0.6,0,1.7,0.7,2.3c0.8,6.6,4.5,11.2,10.2,14.3l0.5,0.3c7.9,4.4,15.8,8.9,23.7,13.3
		c3,1.7,5.9,3.6,9,5l0,0c0.3,0,0.6,0.1,0.8,0.4l0.4,0.3c0.1,0.1,0.2,0.1,0.3,0.1c0.2,0.1,0.4,0.2,0.5,0.3l0,0c0.3,0,0.6,0.1,0.7,0.4
		c0.3,0,0.6,0.1,0.8,0.4c3,1.9,6.1,3.7,9.2,5.3c4.5,2.8,9.1,5.5,13.8,8c4.8,3,9.6,5.8,14.6,8.4c0.2,0.2,0.4,0.3,0.6,0.5
		c4.9,2.7,9.7,5.4,14.6,8.1c0.3,0.1,0.5,0.4,0.9,0.2c0.3-0.8,0.4-1.6,0.4-2.4c0.2-2.5,0.3-5.1,0.6-7.7c0.4-5.3,0.5-10.6,0.3-15.9
		c0.2-3.8,0.1-7.6,0-11.5c0.2-0.7,0.3-1.4,0.2-2.1c0-7.3,0.1-14.6,0-21.9c0-23,0.1-46.1-0.1-69.1c0-3.3-0.1-6.7-0.1-10
		c0-6.6-0.1-13.2,0-19.8c0-7,2.8-12.7,8.7-16.6c1.3-0.9,2.7-1.7,4.1-2.5c23.3-13.4,46.6-26.8,69.9-40.2
		c36.2-20.8,72.4-41.7,108.5-62.5C547.5,574.8,550.6,573.2,553.4,571.3z M853.2,398.1L853.2,398.1z M352.8,787.5c0-0.2,0-0.3,0-0.5
		c0.2-0.1,0.3-0.1,0.5-0.1C353.1,787.1,353,787.3,352.8,787.5z"/>
	<path class="st0" d="M949,470.6h-0.2c-0.7-0.7-0.8-1.9-0.1-2.6c0,0,0.1-0.1,0.1-0.1c0-0.5-0.1-1-0.1-1.5c-0.1-3-0.4-6-0.8-8.9
		c-3.4,1.4-6.8,2.4-9.8,4.1c-2.6,1.5-5.2,3-7.8,4.5c-3.8,2.3-7.8,4.3-11.5,6.8c-0.6,0.2-1.1,0.4-1.5,0.8
		c-11.6,6.7-23.2,13.4-34.9,20.1c-3.4,2-6.8,3.8-10.1,5.9c-3.3,1.6-6.4,3.6-9.6,5.4c-2.2,1.2-4.4,2.5-6.5,3.9
		c-0.1,0.3-0.4,0.5-0.8,0.4l0,0l-0.1,0.1c-0.1,0.1-0.2,0.2-0.4,0.2h-0.1c-0.1,0-0.2,0-0.2,0.1c0,0,0,0,0,0c-0.1,0.1-0.2,0.2-0.4,0.3
		l0,0c-0.1,0.4-0.4,0.4-0.8,0.4l0,0c-0.3,0-0.6,0.2-0.7,0.4l0,0c-0.1,0.2-0.3,0.3-0.5,0.3c-0.1,0-0.2,0-0.2,0.1l-0.4,0.3l0,0
		c-0.1,0.3-0.4,0.5-0.8,0.4c-0.1,0.3-0.4,0.4-0.7,0.4l0,0c-0.1,0.1-0.3,0.2-0.4,0.3l0,0c-0.1,0.4-0.4,0.4-0.7,0.4
		c-0.1,0.3-0.4,0.5-0.8,0.4l0,0c-0.1,0.2-0.2,0.3-0.4,0.3c-0.1,0-0.1,0-0.2,0c-0.1,0-0.2,0-0.2,0.1c-0.1,0.2-0.2,0.3-0.4,0.3l0,0
		c-0.1,0.3-0.4,0.4-0.8,0.4c-0.1,0.3-0.4,0.4-0.7,0.4l0,0c-0.1,0.2-0.2,0.3-0.4,0.3c-0.1,0-0.1,0-0.2,0c-0.1,0-0.2,0-0.2,0.1
		c0,0,0,0,0,0c-0.2,0-0.4,0.1-0.4,0.3l0,0c-0.1,0.4-0.4,0.4-0.8,0.4c-0.1,0.3-0.4,0.4-0.7,0.4l0,0c-0.1,0.2-0.2,0.3-0.4,0.3l0,0
		c-0.1,0.3-0.4,0.4-0.7,0.4l0,0c-0.1,0.3-0.4,0.5-0.7,0.4l0,0c-0.3,0-0.6,0.2-0.7,0.4l0,0c-0.2,0.1-0.3,0.3-0.5,0.3l0,0l0,0
		c-0.4,0.2-0.8,0.3-1.2,0.5c-13.4,7.7-26.8,15.5-40.2,23.2c-3.5,2-7,3.9-10.4,6.1c-0.6,0.3-1.2,0.5-1.7,0.9
		c-14.9,8.6-29.7,17.2-44.6,25.8c-3.6,2.1-7.3,4.1-10.9,6.4c-0.5,0.2-0.9,0.4-1.4,0.7c-13.7,7.9-27.4,15.9-41.1,23.8
		c-3.5,2-7.1,4-10.5,6.2c-0.5,0.2-0.9,0.4-1.4,0.7c-11.9,6.9-23.9,13.9-35.8,20.8c-3.8,2.2-7.6,4.2-11.2,6.6
		c-0.3,0.1-0.6,0.2-0.9,0.4c-6.8,3.9-13.6,7.9-20.3,11.8c-1,0.6-1.9,1.3-2.7,2.2c-2.9,3-4.7,6.9-5.3,11c-0.4,4.3-0.5,8.7-0.3,13
		c-0.1,6.3-0.3,12.7-0.3,19c0,20.5,0,41.1,0.1,61.6c-0.1,0.6,0,1.2,0.2,1.7c-0.2-0.5-0.3-1.1,0.1-1.6l0,0l0,0c0,0.5-0.1,1-0.1,1.6
		c-0.1,1-0.1,2,0.1,3c-0.1,0.7,0,1.4,0.3,2c0.2,2.3,0.5,4.5,1,6.8c0.7-0.2,1.4-0.6,2-1.1c0.6-0.3,1.2-0.5,1.7-0.8
		c11.1-6.4,22.2-12.8,33.2-19.2c3.4-2,6.8-3.8,10.1-5.9c0.1-0.1,0.2-0.1,0.3-0.2c0.1-0.1,0.3-0.2,0.4-0.3l0,0
		c0.1-0.3,0.4-0.5,0.8-0.4l0,0c0.3,0,0.6-0.2,0.7-0.4l0,0c0.1-0.2,0.2-0.3,0.4-0.3l0,0c0.1-0.4,0.4-0.4,0.7-0.4l0,0
		c0.1-0.3,0.4-0.4,0.7-0.4c0.1-0.3,0.4-0.4,0.7-0.4c0.5-0.2,0.9-0.4,1.4-0.7l42.1-24.3c0.4-0.2,0.7-0.5,1.1-0.8l0,0
		c0,0,0-0.1,0.1-0.1c0.1-0.1,0.2-0.2,0.4-0.2h0.1h0.1l0.1-0.1c0.1-0.1,0.3-0.2,0.4-0.3l0,0l0,0l0,0c0.3,0,0.6-0.2,0.7-0.4l0,0
		c0.3,0,0.6-0.2,0.7-0.4l0,0c0.1-0.2,0.3-0.3,0.4-0.3l0,0c0.1-0.4,0.4-0.4,0.7-0.4l0,0c0.1-0.3,0.4-0.4,0.8-0.4
		c0.2-0.2,0.4-0.3,0.7-0.3l0,0c0.2-0.1,0.2-0.3,0.4-0.3l0,0c0.1-0.4,0.4-0.4,0.8-0.4c0.1-0.3,0.4-0.4,0.8-0.4
		c0.2-0.2,0.5-0.2,0.7-0.3c0,0,0.1,0,0.1-0.1l0,0c0.2,0,0.4-0.1,0.5-0.3l0,0c0.2-0.3,0.5-0.2,0.7-0.4l0,0c0.3,0,0.6-0.2,0.7-0.4
		c-0.2,0.2-0.6,0.1-0.7,0.4l0,0c0.1-0.3,0.4-0.4,0.7-0.4l0,0c0.1-0.1,0.2-0.3,0.4-0.3h0.2h0.1l0.1-0.1c0.1-0.1,0.2-0.2,0.4-0.3l0,0
		c0.1-0.4,0.4-0.4,0.8-0.4c0.1-0.3,0.4-0.4,0.7-0.4l0,0c0,0,0-0.1,0.1-0.1c0.1-0.1,0.3-0.2,0.5-0.2l0,0c0.1,0,0.2,0,0.2-0.1
		c0,0,0,0,0,0c0.1-0.1,0.3-0.2,0.4-0.3l0,0l0,0c0.3,0,0.6-0.2,0.7-0.4l0,0c0.1-0.3,0.4-0.4,0.7-0.4l0,0c0.1-0.2,0.3-0.3,0.5-0.3
		c0.1,0,0.2,0,0.3-0.1l0.4-0.3c0.1-0.3,0.4-0.5,0.8-0.4c0.1-0.3,0.4-0.4,0.7-0.4c0.5-0.2,1-0.5,1.5-0.8c9.6-5.5,19.2-11.1,28.8-16.6
		c0.8-0.3,1.5-0.8,2.1-1.3c0.1,0,0.2,0,0.2-0.1c0,0,0,0,0,0c0.1-0.2,0.2-0.3,0.4-0.3l0,0c0.1-0.3,0.4-0.4,0.7-0.4
		c0.1-0.3,0.4-0.4,0.7-0.4l0,0c0,0,0.1-0.1,0.1-0.1l0,0l0,0c0.1-0.1,0.2-0.1,0.3-0.1h0.1c0.1,0,0.2,0,0.2-0.1c0,0,0,0,0,0
		c0.1-0.1,0.3-0.2,0.4-0.3c0.1-0.4,0.4-0.4,0.8-0.4c0.1-0.3,0.4-0.4,0.7-0.4l0,0c0.1-0.2,0.3-0.3,0.5-0.3c0.1-0.4,0.4-0.4,0.7-0.4
		c0.1-0.3,0.4-0.5,0.8-0.4c0.1-0.3,0.4-0.4,0.7-0.4l0,0c0.2-0.1,0.2-0.3,0.4-0.3l0,0c0.1-0.4,0.4-0.4,0.8-0.4
		c0.1-0.3,0.4-0.5,0.7-0.4l0.1-0.1c0.1-0.2,0.3-0.3,0.5-0.3c0.6-0.2,1.2-0.5,1.7-0.8c15.3-8.8,30.7-17.7,46.1-26.6
		c1.5-0.7,2.9-1.6,4.2-2.6l0,0c0.1-0.2,0.3-0.3,0.4-0.3h0.2l0.1-0.1l0.1-0.1c0.1-0.1,0.2-0.2,0.3-0.2l0,0c0.1-0.4,0.4-0.4,0.7-0.4
		c0.1-0.3,0.4-0.4,0.7-0.4l0,0c0.1-0.2,0.2-0.3,0.4-0.3h0.1c0.1-0.4,0.4-0.4,0.7-0.4l0,0c0.1-0.3,0.4-0.5,0.7-0.4l0,0
		c0.1-0.3,0.4-0.4,0.7-0.4l0,0c0.1-0.2,0.3-0.3,0.5-0.3l0,0c0.1-0.4,0.4-0.4,0.7-0.4c0.1-0.3,0.4-0.4,0.7-0.4
		c0.1-0.3,0.4-0.4,0.7-0.4l0,0c0.2-0.1,0.2-0.2,0.4-0.3c0.1-0.4,0.4-0.4,0.8-0.4c0.6-0.2,1.2-0.5,1.7-0.8l24.4-14
		c0.5-0.3,1-0.8,1.9-0.6v4.4c-0.2,4.3-0.2,8.7-0.1,13.1c-0.2,1.9-0.2,3.7,0,5.6l0.1,7.1v0.1c-0.2-0.1-0.3-0.4-0.3-0.8
		c0.1-1.7-0.1-3.4,0-5c-0.2,2.5-0.1,4.9-0.1,7.4c0,16.4,0,32.7,0,49.1c-0.1,0.5,0,1,0.2,1.5c-0.2-0.9-0.2-1.8-0.2-2.7
		c0-0.3,0.1-0.5,0.3-0.7c0.1-0.1,0.2-0.2,0.3-0.3c-0.1,0.2-0.2,0.4-0.3,0.6l-0.1,3.2c0,6.3,0,12.5,0.1,18.7l0,0c0,0.3,0,0.6,0,0.8
		c0,0.3,0,0.6,0.1,0.8c0,0,0,0.1-0.1,0.1s0,0,0,0c-0.1,0.6-0.3,1.1-0.3,1.7c-0.5,3.8-2.4,7.3-5.4,9.9c-1.7,1.5-3.5,2.8-5.5,3.8
		c-3.5,2-7.1,4-10.6,6.1c-2.9,1.7-5.8,3.2-8.6,5c-0.6,0.2-1.2,0.5-1.7,0.8c-15.9,9.1-31.8,18.3-47.7,27.4c-1.1,0.6-2.2,1.2-3.2,2
		c-0.3,0-0.6,0.2-0.8,0.4c-0.1,0.3-0.4,0.4-0.7,0.4l0,0c-0.1,0.2-0.3,0.3-0.5,0.3c-0.1,0.4-0.4,0.4-0.7,0.4l0,0
		c-0.3,0-0.6,0.2-0.7,0.4l0,0c-0.1,0.3-0.4,0.4-0.7,0.4l0,0c-0.2,0.1-0.3,0.3-0.4,0.3c-0.1,0.4-0.4,0.4-0.8,0.4
		c-0.1,0.3-0.4,0.4-0.7,0.4c-0.1,0.2-0.2,0.3-0.4,0.3c-0.1,0-0.1,0-0.2,0h-0.1l-0.1,0.1c-0.1,0.2-0.2,0.3-0.4,0.3l0,0
		c-0.1,0.4-0.4,0.4-0.7,0.4c-0.1,0.3-0.4,0.4-0.7,0.4l0,0c-0.1,0.2-0.2,0.3-0.4,0.3h-0.1c-0.1,0.4-0.4,0.4-0.7,0.4
		c-0.1,0.4-0.4,0.4-0.8,0.4c-0.1,0.3-0.4,0.4-0.7,0.4l0,0c-0.1,0.2-0.2,0.3-0.4,0.3c-0.1,0.4-0.4,0.4-0.7,0.4l0,0
		c-0.1,0.3-0.4,0.5-0.8,0.4c-0.1,0.3-0.4,0.4-0.7,0.4l0,0c-0.1,0.1-0.2,0.3-0.4,0.3l0,0c-0.1,0.4-0.4,0.4-0.7,0.4l0,0
		c-0.1,0.3-0.4,0.4-0.7,0.4l0,0c-0.2,0-0.5,0.1-0.6,0.3h-0.1l-0.1,0.1c-0.1,0.2-0.2,0.3-0.4,0.3l0,0c-0.1,0.4-0.4,0.4-0.7,0.4
		c-0.1,0.3-0.4,0.4-0.8,0.4c-0.1,0.2-0.2,0.3-0.4,0.3c-0.1,0-0.1,0-0.2,0c-0.1,0-0.2,0-0.2,0.1s-0.2,0.2-0.4,0.3l0,0l0,0
		c-0.6,0.1-1.1,0.4-1.5,0.8c-5.9,3.4-11.8,6.8-17.8,10.2c-0.9,0.4-1.8,1-2.6,1.6c-0.6,0.3-1.3,0.6-1.9,1
		c-8.3,4.8-16.5,9.5-24.8,14.3c-1.4,0.7-2.8,1.5-4,2.5c-2.9,1.5-5.7,3.1-8.5,4.9c-0.1,0.4-0.4,0.5-0.8,0.5c-0.1,0.3-0.4,0.4-0.8,0.4
		c-0.1,0.3-0.4,0.4-0.7,0.4l0,0c-0.2,0-0.4,0.1-0.5,0.3l0,0c-0.1,0.4-0.4,0.4-0.7,0.4c-0.1,0.3-0.4,0.4-0.7,0.4l0,0
		c0,0.1-0.1,0.1-0.1,0.2c-0.1,0.1-0.2,0.1-0.2,0.1h-0.1l0,0l0,0l0,0c-0.3,0-0.6,0.2-0.7,0.4l0,0c-0.1,0.3-0.4,0.4-0.7,0.4
		c-0.1,0.3-0.4,0.4-0.7,0.4l0,0c-0.2,0-0.4,0.1-0.5,0.3l0,0c-0.1,0.4-0.4,0.4-0.7,0.4l0,0c-0.1,0.3-0.4,0.4-0.7,0.4
		c-0.1,0.1-0.2,0.3-0.4,0.3c-0.1,0-0.1,0-0.2,0c-0.1,0-0.1,0-0.2,0c0,0,0,0,0,0.1c-0.1,0.1-0.2,0.2-0.4,0.3l0,0l0,0
		c-0.3,0-0.6,0.2-0.7,0.4l0,0c-0.1,0.3-0.4,0.4-0.7,0.4l0,0c0,0.1-0.1,0.1-0.1,0.2h-0.1c0,0-0.1,0.1-0.2,0.1h-0.1l0,0
		c-0.1,0.4-0.4,0.4-0.7,0.4l0,0l0,0c-3.3,1.6-6.4,3.6-9.6,5.4c-4.5,2.6-9.1,5.1-13.5,7.9c-0.5,0.2-1,0.5-1.5,0.8
		c-7.4,4.3-14.8,8.7-22.2,12.9c-6.4,3.6-12.5,7.7-19.2,10.7c-2.1,0.3-4.1,0.9-6.2,0.5c-2.6-0.5-5-1.4-7.3-2.7
		c-1.2-0.8-2.5-1.5-3.8-2.1c-0.1-0.3-0.4-0.4-0.7-0.4l0,0c-0.3,0-0.6,0-0.8-0.4c-0.2,0-0.3-0.2-0.4-0.3l0,0
		c-0.1-0.3-0.4-0.4-0.7-0.4l0,0c-4.3-2.7-8.6-5.3-13.1-7.7c-0.1-0.1-0.3-0.3-0.4-0.4c-4.3-2.4-8.5-5.1-12.9-7.4
		c-1.5-1.1-3.1-2-4.7-2.8c-4.1-2.3-8.1-4.9-12.4-7.1c-0.7-0.6-1.6-1.1-2.4-1.5c-3.7-2.1-7.2-4.3-11-6.2c-0.2-0.3-0.4-0.4-0.8-0.4
		l0,0l0,0c-0.1-0.1-0.3-0.2-0.4-0.3c0-0.1-0.1-0.1-0.2-0.1c0,0,0,0,0,0c-0.2,0-0.4-0.1-0.5-0.3l0,0c-0.3,0-0.6-0.1-0.7-0.4l0,0
		c-0.1-0.1-0.2-0.3-0.4-0.4c-4.8-2.7-9.4-5.5-14.2-8c-3.7-2.4-7.5-4.5-11.4-6.6c-1.2-0.9-2.5-1.7-3.9-2.4c-2.9-1.7-5.8-3.5-8.8-4.9
		c-1.8-1.2-3.7-2.4-5.7-3.4c-3-1.7-5.9-3.5-8.9-5c-0.1-0.1-0.3-0.3-0.4-0.4c-6.6-3.9-13.4-7.5-20.2-11c-0.2-0.2-0.6-0.3-0.9-0.2
		c-0.2,0.5-0.2,1-0.1,1.5c0,9.9,0,19.8,0,29.7c0,0.4,0,0.8,0.1,1.1s-0.1,0.9-0.1,1.3c0,13.1,0,26.2,0,39.3c0,0.4,0,0.8,0.1,1.2
		c-0.1,0.5-0.1,1,0,1.5c0,3.3-0.1,6.5-0.1,9.8c0,2.6-0.2,5.2,0,7.9c-0.1,0.2-0.1,0.3-0.2,0.5c0,4.1-0.2,8.2,0,12.2
		c0,3,0.8,6,2.5,8.5c1,2,2.5,3.7,4.4,4.9c3.5,2.5,7.2,4.6,11,6.5c3.8,2.5,7.9,4.6,11.9,6.9c1.6,1,3.3,1.9,5,2.7c1.5,1,3.1,2,4.8,2.8
		c2.9,1.6,5.7,3.4,8.7,4.8c1.5,1,3,1.9,4.6,2.8c2.9,1.7,5.8,3.5,8.8,5c2,1.4,4.2,2.6,6.3,3.8c3.2,1.9,6.4,3.9,9.7,5.5
		c4,2.5,8.1,4.9,12.3,7.1l0,0c0.3,0,0.6,0.1,0.7,0.4c0.3,0,0.6,0,0.7,0.4l0,0c0.2,0,0.3,0.2,0.4,0.3l0,0c0.3,0,0.6,0.1,0.7,0.4
		c1,0.8,2.2,1.5,3.4,2c1.8,1.3,3.8,2.4,5.8,3.4c0.2,0.3,0.4,0.4,0.8,0.4l0,0l0,0c0.3,0,0.6,0,0.7,0.4l0,0l0,0l0,0
		c0.1,0.2,0.3,0.3,0.5,0.3l0,0c0.3,0,0.6,0.1,0.7,0.4c0.3,0,0.6,0,0.7,0.4l0,0c0.2,0,0.3,0.1,0.4,0.3l0.1,0.1h0.1c0.1,0,0.1,0,0.2,0
		c0.2,0,0.3,0.2,0.4,0.3c0.3,0,0.6,0.1,0.8,0.4c0.9,0.8,2,1.4,3.1,1.8c1.7,1.2,3.5,2.2,5.4,3.1c1.7,1.2,3.4,2.2,5.3,3.1l0,0
		c0.2,0,0.3,0.2,0.5,0.3l0,0c0.3,0,0.6,0.1,0.7,0.4l0,0c0.3,0,0.6,0.1,0.7,0.4l0,0c0.1,0.1,0.3,0.2,0.4,0.3c3.9,2.5,7.8,4.8,11.9,7
		c3.3,2.4,6.9,4.2,10.8,5.4h0.8c0.6,0,1.1-0.2,1.6,0.4h3.1c0.4-0.5,1-0.4,1.6-0.4h0.8c1.9-0.5,3.8-1.3,5.5-2.3c0.1,0,0.2,0,0.3-0.1
		c0,0,0,0,0,0c0,0,0-0.1,0.1-0.1l0,0c0,0,0.1-0.1,0.2-0.1l0,0h0.1l0,0c0.1-0.4,0.4-0.4,0.7-0.4c0.1-0.4,0.4-0.4,0.8-0.4
		c0.1-0.3,0.4-0.4,0.7-0.4l0,0l0.1-0.1c0.1-0.1,0.2-0.2,0.3-0.2h0.1l0,0c0.1-0.4,0.4-0.4,0.7-0.4c0.1-0.3,0.4-0.5,0.8-0.4
		c0.1-0.3,0.4-0.4,0.7-0.4l0,0c0.2-0.1,0.3-0.3,0.4-0.3l0,0c0.1-0.4,0.4-0.4,0.7-0.4c0.1-0.3,0.4-0.4,0.7-0.4l0,0
		c0.1-0.2,0.2-0.3,0.4-0.3h0.1c0.1-0.4,0.4-0.4,0.7-0.4c0.1-0.4,0.4-0.4,0.8-0.4c0.1-0.3,0.4-0.4,0.7-0.4c0.4-0.2,0.8-0.3,1.2-0.6
		l37.3-21.7c0.4-0.2,0.8-0.4,1.1-0.8l0,0l0,0c0.1-0.3,0.4-0.4,0.7-0.4l0,0c0.1-0.1,0.2-0.2,0.3-0.3l0,0h0.1c0.1-0.4,0.4-0.4,0.7-0.4
		l0,0c0.1-0.4,0.4-0.4,0.7-0.4c0.1-0.3,0.4-0.4,0.7-0.4l0,0c0.1-0.2,0.3-0.3,0.5-0.3c0.1-0.4,0.4-0.4,0.7-0.4l0,0
		c0.1-0.3,0.4-0.5,0.7-0.4c0.1-0.2,0.2-0.3,0.4-0.3c0.1,0,0.1,0,0.2,0h0.1l0.1-0.1c0.1-0.2,0.2-0.3,0.4-0.3l0,0
		c0.1-0.4,0.4-0.4,0.8-0.4c0.1-0.3,0.4-0.4,0.7-0.4l0,0c0.1-0.2,0.2-0.3,0.4-0.3c0,0,0,0,0.1,0l0,0l0,0c0.3,0,0.6-0.2,0.7-0.4l0,0
		l0,0c0.1-0.3,0.4-0.5,0.8-0.4l0,0c0.1-0.3,0.4-0.4,0.7-0.4l0,0c0.1-0.2,0.3-0.3,0.4-0.3l0,0c0.1-0.4,0.4-0.4,0.7-0.4l0,0l0,0
		c0.3,0,0.6-0.2,0.7-0.4c0.1-0.2,0.2-0.3,0.4-0.3h0.2h0.1l0.1-0.1c0.1-0.2,0.2-0.3,0.4-0.3l0,0c0.1-0.4,0.4-0.4,0.7-0.4
		c0.1-0.3,0.4-0.4,0.7-0.4l0,0c0.1-0.2,0.3-0.3,0.5-0.3c0.6-0.2,1.1-0.4,1.5-0.8c9.2-5.3,18.4-10.7,27.7-16c1.4-0.7,2.8-1.6,4.1-2.5
		l0,0l0.1-0.1c0,0,0-0.1,0.1-0.1c0.1-0.1,0.2-0.1,0.3-0.1h0.2l0.1-0.1l0.1-0.1c0.1-0.1,0.2-0.2,0.3-0.2l0,0c0.1-0.3,0.4-0.5,0.7-0.4
		c0.1-0.3,0.4-0.4,0.7-0.4l0,0c0,0,0-0.1,0.1-0.1c0.1-0.1,0.2-0.2,0.3-0.2h0.1c0.1-0.4,0.4-0.4,0.7-0.4c0.1-0.3,0.4-0.5,0.7-0.4
		c0.1-0.3,0.4-0.4,0.7-0.4l0,0c0.2-0.1,0.2-0.2,0.4-0.3l0,0c0.1-0.4,0.4-0.4,0.7-0.4c0.1-0.3,0.4-0.4,0.7-0.4l0.1-0.1
		c0.1-0.1,0.2-0.2,0.4-0.2h0.3l0.1-0.1c0.1-0.2,0.2-0.3,0.4-0.3l0,0c0.1-0.4,0.4-0.4,0.8-0.4c0.4-0.2,0.8-0.3,1.2-0.6l57.9-33.5
		c0.5-0.2,0.9-0.5,1.2-0.9c0.7-0.2,1.4-0.6,2-1c32.3-18.6,64.7-37.3,97-55.9c19.9-11.4,39.8-22.9,59.7-34.3c2.7-1.5,5.2-3.3,7.4-5.5
		c2.6-2.6,4.3-6,4.7-9.6c0-0.1,0-0.2,0-0.3c-0.1-0.4,0-0.8,0.3-1.2l0.1-0.1V648.4c-0.1,0.1-0.1,0.1-0.2,0.1s-0.1-0.1-0.1-0.2h0.1
		h0.2V545.9h-0.3l0,0l0,0c0.1,0,0.2,0,0.3,0v-75.2L949,470.6z M599.8,712.8L599.8,712.8L599.8,712.8
		C599.8,712.9,599.8,712.8,599.8,712.8z M599.8,737.8c0,0,0-0.1-0.1-0.1l0.1-0.1V737.8z M848,678.2v0.2c-0.2,0-0.3-0.1-0.5-0.1
		C847.7,678.3,847.8,678.3,848,678.2z M848,694.3c-0.2,0.1-0.3,0.1-0.5,0.1c0.2-0.2,0.3-0.4,0.5-0.6C848,694,848,694.1,848,694.3z
		 M948.2,698.6c0.2,0,0.3,0,0.5,0.1c-0.2,0-0.4,0-0.5,0.1C948.2,698.7,948.2,698.6,948.2,698.6L948.2,698.6z M948.2,678.2
		c0-0.2,0-0.3,0-0.5c0.2-0.1,0.3-0.1,0.5-0.1l0,0C948.6,677.8,948.4,678,948.2,678.2L948.2,678.2z M948.8,657
		c-0.1,0.1-0.2,0.2-0.3,0.4c0.1-0.2,0.2-0.4,0.3-0.5V657z M948.6,630.2c0,0,0.1,0,0.1,0.1v0.1L948.6,630.2z M948.7,561.2l-0.5,0.4
		c0-0.1,0-0.2,0-0.4v-0.1C948.4,561.2,948.5,561.2,948.7,561.2L948.7,561.2z M948.2,549.2c0-0.2,0-0.3,0-0.4l0,0
		c0.2-0.1,0.3-0.2,0.5-0.2C948.6,548.8,948.4,549.1,948.2,549.2L948.2,549.2z M948.2,578.2c0.2-0.1,0.3-0.1,0.5-0.1
		c-0.2,0.2-0.3,0.3-0.5,0.5C948.2,578.5,948.2,578.4,948.2,578.2L948.2,578.2z M948.2,486.5c0.2-0.1,0.3-0.1,0.5-0.1
		c-0.2,0.2-0.3,0.4-0.5,0.6C948.2,486.8,948.2,486.7,948.2,486.5L948.2,486.5z M948.2,513c0.2-0.1,0.3-0.1,0.5-0.1
		c-0.2,0.2-0.3,0.4-0.5,0.6C948.2,513.3,948.2,513.2,948.2,513L948.2,513z M948.2,535.4c0.2-0.1,0.3-0.2,0.5-0.3
		c-0.1,0.3-0.3,0.5-0.5,0.8C948.2,535.7,948.2,535.6,948.2,535.4L948.2,535.4z M948.2,594.5v-0.3c0.2,0,0.3,0,0.5,0V610
		c-0.2,0.1-0.4,0.2-0.5,0.3V610C948.1,604.8,948.1,599.7,948.2,594.5L948.2,594.5z M948.8,727.5L948.8,727.5L948.8,727.5
		c-0.5-0.7-0.8-1.6-0.6-2.5c0-6.8,0-13.5,0-20.3c-0.2-0.9,0.1-1.8,0.6-2.5l0,0C948.8,710.6,948.7,719,948.8,727.5L948.8,727.5z"/>
</g>
</svg>
